<svg xmlns="http://www.w3.org/2000/svg" version="1.1" xmlns:xlink="http://www.w3.org/1999/xlink" xmlns:svgjs="http://svgjs.dev/svgjs" width="1500" height="185" viewBox="0 0 1500 185"><g transform="matrix(1,0,0,1,-0.9090909090909918,-0.6252989768265991)"><svg viewBox="0 0 396 49" data-background-color="#000000" preserveAspectRatio="xMidYMid meet" height="185" width="1500" xmlns="http://www.w3.org/2000/svg" xmlns:xlink="http://www.w3.org/1999/xlink"><g id="tight-bounds" transform="matrix(1,0,0,1,0.2400000000000091,0.1656197289973136)"><svg viewBox="0 0 395.52 48.668760542005366" height="48.668760542005366" width="395.52"><g><svg viewBox="0 0 468.1086627701752 57.6008" height="48.668760542005366" width="395.52"><g><svg viewBox="0 0 468.1086627701752 57.6008" height="57.6008" width="468.1086627701752"><g id="textblocktransform"><svg viewBox="0 0 468.1086627701752 57.6008" height="57.6008" width="468.1086627701752" id="textblock"><g><svg viewBox="0 0 468.1086627701752 57.6008" height="57.6008" width="468.1086627701752"><g><svg><g></g><g></g></svg></g><g><svg><g><svg></svg></g><g></g></svg></g><g id="text-0"><svg viewBox="0 0 468.1086627701752 57.6008" height="57.6008" width="468.1086627701752"><g transform="matrix(1,0,0,1,0,0.7627416965352474)"><svg width="395.52" viewBox="4.05 -35 251.07999999999998 35.6" height="56.075316606929505" data-palette-color="url(#fa1c9fee-0878-4a5c-bd45-8d2c8552e22f)"><g class="wordmark-text-0" data-fill-palette-color="primary"></g></svg></g><g><svg xmlns="http://www.w3.org/2000/svg" xmlns:xlink="http://www.w3.org/1999/xlink" version="1.1" x="409.1192" y="0" viewBox="11.017823632605118 11.459999999999999 37.963698158539415 37.07000000000001" style="enable-background:new 0 0 60 60;" xml:space="preserve" height="57.6008" width="58.98946277017525" class="icon-cg-0" data-fill-palette-color="accent" id="cg-0"></svg></g></svg></g></svg></g></svg></g></svg></g><g></g></svg></g><defs></defs><mask id="9e5f7a92-1ba1-446e-9687-eef6a7db6e26"><g id="SvgjsG1963"><svg viewBox="0 0 395.52 48.668760542005366" height="48.668760542005366" width="395.52"><g><svg viewBox="0 0 468.1086627701752 57.6008" height="48.668760542005366" width="395.52"><g><svg viewBox="0 0 468.1086627701752 57.6008" height="57.6008" width="468.1086627701752"><g id="SvgjsG1962"><svg viewBox="0 0 468.1086627701752 57.6008" height="57.6008" width="468.1086627701752" id="SvgjsSvg1961"><g><svg viewBox="0 0 468.1086627701752 57.6008" height="57.6008" width="468.1086627701752"><g><svg><g></g><g></g></svg></g><g><svg><g><svg></svg></g><g></g></svg></g><g id="SvgjsG1960"><svg viewBox="0 0 468.1086627701752 57.6008" height="57.6008" width="468.1086627701752"><g transform="matrix(1,0,0,1,0,0.7627416965352474)"><svg width="395.52" viewBox="4.05 -35 251.07999999999998 35.6" height="56.075316606929505" data-palette-color="url(#fa1c9fee-0878-4a5c-bd45-8d2c8552e22f)"><g class="wordmark-text-0" data-fill-palette-color="primary"><path d="M10.7-34.55L10.7-34.55Q13.2-34.55 15.73-34.55 18.25-34.55 20.73-34.48 23.2-34.4 25.5-34.25L25.5-34.25 25.3-30.8 11.45-30.8Q9.9-30.8 9.18-30.03 8.45-29.25 8.45-27.5L8.45-27.5 8.45-7Q8.45-5.25 9.18-4.45 9.9-3.65 11.45-3.65L11.45-3.65 25.3-3.65 25.5-0.25Q23.2-0.1 20.73-0.05 18.25 0 15.73 0.03 13.2 0.05 10.7 0.05L10.7 0.05Q7.65 0.05 5.88-1.58 4.1-3.2 4.05-5.95L4.05-5.95 4.05-28.55Q4.1-31.35 5.88-32.95 7.65-34.55 10.7-34.55ZM4.95-16.45L4.95-20 23.35-20 23.35-16.45 4.95-16.45ZM31.95-35L36.2-35 36.15-6.7Q36.15-5.1 37.02-4.28 37.9-3.45 39.5-3.45L39.5-3.45 41.85-3.45 42.35-0.2Q41.9 0 41.07 0.15 40.25 0.3 39.37 0.38 38.5 0.45 37.9 0.45L37.9 0.45Q35.2 0.45 33.57-1.15 31.95-2.75 31.95-5.75L31.95-5.75 31.95-35ZM56.74-24.95L56.74-24.95Q62.25-24.95 64.72-22.95 67.19-20.95 67.19-17L67.19-17Q67.25-13.75 65.84-11.93 64.44-10.1 61.39-10.1L61.39-10.1 47.2-10.1 47.2-13.4 60.3-13.4Q61.95-13.4 62.45-14.53 62.95-15.65 62.95-17L62.95-17Q62.89-19.35 61.55-20.35 60.2-21.35 56.95-21.35L56.95-21.35Q54.3-21.35 52.77-20.58 51.24-19.8 50.62-17.88 49.99-15.95 49.99-12.5L49.99-12.5Q49.99-8.6 50.77-6.55 51.55-4.5 53.24-3.75 54.95-3 57.74-3L57.74-3Q59.7-3 62.02-3.18 64.34-3.35 66.19-3.6L66.19-3.6 66.64-0.75Q65.5-0.3 63.82 0 62.14 0.3 60.37 0.45 58.59 0.6 57.2 0.6L57.2 0.6Q52.99 0.6 50.45-0.68 47.89-1.95 46.72-4.78 45.55-7.6 45.55-12.25L45.55-12.25Q45.55-17.05 46.72-19.83 47.89-22.6 50.37-23.78 52.84-24.95 56.74-24.95ZM90.74-24.35L95.24-24.35 86.34-1.05Q86.14-0.55 85.77-0.28 85.39 0 84.84 0L84.84 0 80.99 0Q80.49 0 80.09-0.28 79.69-0.55 79.49-1.05L79.49-1.05 70.59-24.35 75.14-24.35 81.14-7.3Q81.54-6.25 81.89-5.15 82.24-4.05 82.59-3.05L82.59-3.05 83.24-3.05Q83.64-4.1 84.02-5.18 84.39-6.25 84.74-7.3L84.74-7.3 90.74-24.35ZM111.59-24.95L111.59-24.95Q114.29-24.95 116.16-24.23 118.04-23.5 118.99-21.8 119.94-20.1 119.94-17.15L119.94-17.15 119.94 0 116.59 0 115.94-5.3 115.64-5.85 115.64-17.15Q115.64-19.4 114.61-20.38 113.59-21.35 110.69-21.35L110.69-21.35Q108.79-21.35 105.91-21.15 103.04-20.95 100.24-20.7L100.24-20.7 99.84-23.85Q101.54-24.15 103.56-24.4 105.59-24.65 107.69-24.8 109.79-24.95 111.59-24.95ZM105.49-15L117.94-15 117.89-11.8 106.24-11.75Q104.49-11.7 103.79-10.83 103.09-9.95 103.09-8.4L103.09-8.4 103.09-6.85Q103.09-4.95 103.99-4.08 104.89-3.2 106.89-3.2L106.89-3.2Q108.29-3.2 110.06-3.73 111.84-4.25 113.64-5.35 115.44-6.45 116.94-8.15L116.94-8.15 116.94-5Q116.39-4.3 115.36-3.38 114.34-2.45 112.91-1.58 111.49-0.7 109.77-0.13 108.04 0.45 106.04 0.45L106.04 0.45Q103.89 0.45 102.24-0.33 100.59-1.1 99.66-2.63 98.74-4.15 98.74-6.35L98.74-6.35 98.74-9Q98.74-11.85 100.52-13.43 102.29-15 105.49-15L105.49-15ZM129.39-31.55L133.64-31.55 133.64-6.7Q133.64-4.95 134.39-4.2 135.14-3.45 136.94-3.45L136.94-3.45 140.64-3.45 141.14-0.2Q140.34 0 139.29 0.15 138.24 0.3 137.24 0.38 136.24 0.45 135.64 0.45L135.64 0.45Q132.59 0.45 130.99-1.25 129.39-2.95 129.39-6.15L129.39-6.15 129.39-31.55ZM129.79-24.35L141.39-24.35 141.39-21 124.99-21 124.99-24.1 129.79-24.35ZM156.59-24.95L156.59-24.95Q162.09-24.95 164.56-22.95 167.03-20.95 167.03-17L167.03-17Q167.09-13.75 165.69-11.93 164.28-10.1 161.24-10.1L161.24-10.1 147.03-10.1 147.03-13.4 160.13-13.4Q161.78-13.4 162.28-14.53 162.78-15.65 162.78-17L162.78-17Q162.74-19.35 161.38-20.35 160.03-21.35 156.78-21.35L156.78-21.35Q154.13-21.35 152.61-20.58 151.09-19.8 150.46-17.88 149.84-15.95 149.84-12.5L149.84-12.5Q149.84-8.6 150.61-6.55 151.38-4.5 153.09-3.75 154.78-3 157.59-3L157.59-3Q159.53-3 161.86-3.18 164.19-3.35 166.03-3.6L166.03-3.6 166.49-0.75Q165.34-0.3 163.66 0 161.99 0.3 160.21 0.45 158.44 0.6 157.03 0.6L157.03 0.6Q152.84 0.6 150.28-0.68 147.74-1.95 146.56-4.78 145.38-7.6 145.38-12.25L145.38-12.25Q145.38-17.05 146.56-19.83 147.74-22.6 150.21-23.78 152.69-24.95 156.59-24.95ZM186.18-34.95L186.18-34.95Q189.88-34.95 192.46-34.05 195.03-33.15 196.61-31.1 198.18-29.05 198.91-25.65 199.63-22.25 199.63-17.25L199.63-17.25Q199.63-12.25 198.91-8.85 198.18-5.45 196.61-3.4 195.03-1.35 192.46-0.45 189.88 0.45 186.18 0.45L186.18 0.45Q182.63 0.45 179.61 0.33 176.58 0.2 173.88 0L173.88 0 175.78-3.6Q177.88-3.55 180.46-3.48 183.03-3.4 186.18-3.4L186.18-3.4Q189.48-3.4 191.43-4.67 193.38-5.95 194.21-8.97 195.03-12 195.03-17.25L195.03-17.25Q195.03-22.5 194.21-25.53 193.38-28.55 191.43-29.85 189.48-31.15 186.18-31.15L186.18-31.15Q183.08-31.15 180.61-31.1 178.13-31.05 175.78-31L175.78-31 173.88-34.5Q176.58-34.7 179.61-34.83 182.63-34.95 186.18-34.95ZM173.88-34.5L178.28-34.5 178.28 0 173.88 0 173.88-34.5ZM216.63-24.95L216.63-24.95Q222.13-24.95 224.61-22.95 227.08-20.95 227.08-17L227.08-17Q227.13-13.75 225.73-11.93 224.33-10.1 221.28-10.1L221.28-10.1 207.08-10.1 207.08-13.4 220.18-13.4Q221.83-13.4 222.33-14.53 222.83-15.65 222.83-17L222.83-17Q222.78-19.35 221.43-20.35 220.08-21.35 216.83-21.35L216.83-21.35Q214.18-21.35 212.66-20.58 211.13-19.8 210.51-17.88 209.88-15.95 209.88-12.5L209.88-12.5Q209.88-8.6 210.66-6.55 211.43-4.5 213.13-3.75 214.83-3 217.63-3L217.63-3Q219.58-3 221.91-3.18 224.23-3.35 226.08-3.6L226.08-3.6 226.53-0.75Q225.38-0.3 223.71 0 222.03 0.3 220.26 0.45 218.48 0.6 217.08 0.6L217.08 0.6Q212.88 0.6 210.33-0.68 207.78-1.95 206.61-4.78 205.43-7.6 205.43-12.25L205.43-12.25Q205.43-17.05 206.61-19.83 207.78-22.6 210.26-23.78 212.73-24.95 216.63-24.95ZM250.63-24.35L255.13-24.35 246.23-1.05Q246.03-0.55 245.65-0.28 245.28 0 244.73 0L244.73 0 240.88 0Q240.38 0 239.98-0.28 239.58-0.55 239.38-1.05L239.38-1.05 230.48-24.35 235.03-24.35 241.03-7.3Q241.43-6.25 241.78-5.15 242.13-4.05 242.48-3.05L242.48-3.05 243.13-3.05Q243.53-4.1 243.9-5.18 244.28-6.25 244.63-7.3L244.63-7.3 250.63-24.35Z" fill="white"></path></g></svg></g><g><svg xmlns="http://www.w3.org/2000/svg" xmlns:xlink="http://www.w3.org/1999/xlink" version="1.1" x="409.1192" y="0" viewBox="11.017823632605118 11.459999999999999 37.963698158539415 37.07000000000001" style="enable-background:new 0 0 60 60;" xml:space="preserve" height="57.6008" width="58.98946277017525" class="icon-cg-0" data-fill-palette-color="accent" id="SvgjsSvg1959"><path d="M48.85 34.1L35.82 11.92c-0.17-0.29-0.47-0.46-0.81-0.46s-0.64 0.18-0.81 0.46L30 19.08l-4.21-7.15c-0.17-0.29-0.47-0.46-0.81-0.46s-0.64 0.18-0.81 0.46L11.15 34.1c-0.22 0.37-0.16 0.83 0.14 1.13l13.03 13.03c0.18 0.18 0.42 0.27 0.66 0.27s0.48-0.09 0.66-0.27L30 43.91l4.35 4.35c0.18 0.18 0.42 0.27 0.66 0.27s0.48-0.09 0.66-0.27l13.03-13.03C49.01 34.93 49.07 34.46 48.85 34.1zM24.99 46.28L13.13 34.42l11.86-20.18 3.93 6.68L21.17 34.1c-0.22 0.37-0.16 0.83 0.14 1.13l7.36 7.36L24.99 46.28zM30 22.77l6.85 11.65L30 41.27l-6.85-6.85L30 22.77zM35.01 46.28l-3.69-3.69 7.36-7.36c0.3-0.3 0.36-0.77 0.14-1.13l-7.74-13.17 3.93-6.68 11.86 20.18L35.01 46.28z" fill="black"></path></svg></g></svg></g></svg></g></svg></g></svg></g><g></g></svg></g><defs><mask></mask></defs></svg><rect width="395.52" height="48.668760542005366" fill="black" stroke="none" visibility="hidden"></rect></g></mask><linearGradient x1="0" x2="1" y1="0.578" y2="0.595" id="fa1c9fee-0878-4a5c-bd45-8d2c8552e22f"><stop stop-color="#6ee2f5" offset="0"></stop><stop stop-color="#6454f0" offset="1"></stop></linearGradient><rect width="395.52" height="48.668760542005366" fill="url(#fa1c9fee-0878-4a5c-bd45-8d2c8552e22f)" mask="url(#9e5f7a92-1ba1-446e-9687-eef6a7db6e26)" data-fill-palette-color="primary"></rect><mask id="e2a4d79a-18c9-4358-a778-aef6d9ad5f63"><g id="SvgjsG1984"><svg viewBox="0 0 395.52 48.668760542005366" height="48.668760542005366" width="395.52"><g><svg viewBox="0 0 468.1086627701752 57.6008" height="48.668760542005366" width="395.52"><g><svg viewBox="0 0 468.1086627701752 57.6008" height="57.6008" width="468.1086627701752"><g id="SvgjsG1983"><svg viewBox="0 0 468.1086627701752 57.6008" height="57.6008" width="468.1086627701752" id="SvgjsSvg1982"><g><svg viewBox="0 0 468.1086627701752 57.6008" height="57.6008" width="468.1086627701752"><g><svg><g></g><g></g></svg></g><g><svg><g><svg></svg></g><g></g></svg></g><g id="SvgjsG1981"><svg viewBox="0 0 468.1086627701752 57.6008" height="57.6008" width="468.1086627701752"><g transform="matrix(1,0,0,1,0,0.7627416965352474)"><svg width="395.52" viewBox="4.05 -35 251.07999999999998 35.6" height="56.075316606929505" data-palette-color="url(#fa1c9fee-0878-4a5c-bd45-8d2c8552e22f)"><g class="wordmark-text-0" data-fill-palette-color="primary"></g></svg></g><g><svg xmlns="http://www.w3.org/2000/svg" xmlns:xlink="http://www.w3.org/1999/xlink" version="1.1" x="409.1192" y="0" viewBox="11.017823632605118 11.459999999999999 37.963698158539415 37.07000000000001" style="enable-background:new 0 0 60 60;" xml:space="preserve" height="57.6008" width="58.98946277017525" class="icon-cg-0" data-fill-palette-color="accent" id="SvgjsSvg1980"><path d="M48.85 34.1L35.82 11.92c-0.17-0.29-0.47-0.46-0.81-0.46s-0.64 0.18-0.81 0.46L30 19.08l-4.21-7.15c-0.17-0.29-0.47-0.46-0.81-0.46s-0.64 0.18-0.81 0.46L11.15 34.1c-0.22 0.37-0.16 0.83 0.14 1.13l13.03 13.03c0.18 0.18 0.42 0.27 0.66 0.27s0.48-0.09 0.66-0.27L30 43.91l4.35 4.35c0.18 0.18 0.42 0.27 0.66 0.27s0.48-0.09 0.66-0.27l13.03-13.03C49.01 34.93 49.07 34.46 48.85 34.1zM24.99 46.28L13.13 34.42l11.86-20.18 3.93 6.68L21.17 34.1c-0.22 0.37-0.16 0.83 0.14 1.13l7.36 7.36L24.99 46.28zM30 22.77l6.85 11.65L30 41.27l-6.85-6.85L30 22.77zM35.01 46.28l-3.69-3.69 7.36-7.36c0.3-0.3 0.36-0.77 0.14-1.13l-7.74-13.17 3.93-6.68 11.86 20.18L35.01 46.28z" fill="white"></path></svg></g></svg></g></svg></g></svg></g></svg></g><g></g></svg></g><defs><mask></mask></defs><mask><g id="SvgjsG1979"><svg viewBox="0 0 395.52 48.668760542005366" height="48.668760542005366" width="395.52"><g><svg viewBox="0 0 468.1086627701752 57.6008" height="48.668760542005366" width="395.52"><g><svg viewBox="0 0 468.1086627701752 57.6008" height="57.6008" width="468.1086627701752"><g id="SvgjsG1978"><svg viewBox="0 0 468.1086627701752 57.6008" height="57.6008" width="468.1086627701752" id="SvgjsSvg1977"><g><svg viewBox="0 0 468.1086627701752 57.6008" height="57.6008" width="468.1086627701752"><g><svg><g></g><g></g></svg></g><g><svg><g><svg></svg></g><g></g></svg></g><g id="SvgjsG1976"><svg viewBox="0 0 468.1086627701752 57.6008" height="57.6008" width="468.1086627701752"><g transform="matrix(1,0,0,1,0,0.7627416965352474)"><svg width="395.52" viewBox="4.05 -35 251.07999999999998 35.6" height="56.075316606929505" data-palette-color="url(#fa1c9fee-0878-4a5c-bd45-8d2c8552e22f)"><g class="wordmark-text-0" data-fill-palette-color="primary"><path d="M10.7-34.55L10.7-34.55Q13.2-34.55 15.73-34.55 18.25-34.55 20.73-34.48 23.2-34.4 25.5-34.25L25.5-34.25 25.3-30.8 11.45-30.8Q9.9-30.8 9.18-30.03 8.45-29.25 8.45-27.5L8.45-27.5 8.45-7Q8.45-5.25 9.18-4.45 9.9-3.65 11.45-3.65L11.45-3.65 25.3-3.65 25.5-0.25Q23.2-0.1 20.73-0.05 18.25 0 15.73 0.03 13.2 0.05 10.7 0.05L10.7 0.05Q7.65 0.05 5.88-1.58 4.1-3.2 4.05-5.95L4.05-5.95 4.05-28.55Q4.1-31.35 5.88-32.95 7.65-34.55 10.7-34.55ZM4.95-16.45L4.95-20 23.35-20 23.35-16.45 4.95-16.45ZM31.95-35L36.2-35 36.15-6.7Q36.15-5.1 37.02-4.28 37.9-3.45 39.5-3.45L39.5-3.45 41.85-3.45 42.35-0.2Q41.9 0 41.07 0.15 40.25 0.3 39.37 0.38 38.5 0.45 37.9 0.45L37.9 0.45Q35.2 0.45 33.57-1.15 31.95-2.75 31.95-5.75L31.95-5.75 31.95-35ZM56.74-24.95L56.74-24.95Q62.25-24.95 64.72-22.95 67.19-20.95 67.19-17L67.19-17Q67.25-13.75 65.84-11.93 64.44-10.1 61.39-10.1L61.39-10.1 47.2-10.1 47.2-13.4 60.3-13.4Q61.95-13.4 62.45-14.53 62.95-15.65 62.95-17L62.95-17Q62.89-19.35 61.55-20.35 60.2-21.35 56.95-21.35L56.95-21.35Q54.3-21.35 52.77-20.58 51.24-19.8 50.62-17.88 49.99-15.95 49.99-12.5L49.99-12.5Q49.99-8.6 50.77-6.55 51.55-4.5 53.24-3.75 54.95-3 57.74-3L57.74-3Q59.7-3 62.02-3.18 64.34-3.35 66.19-3.6L66.19-3.6 66.64-0.75Q65.5-0.3 63.82 0 62.14 0.3 60.37 0.45 58.59 0.6 57.2 0.6L57.2 0.6Q52.99 0.6 50.45-0.68 47.89-1.95 46.72-4.78 45.55-7.6 45.55-12.25L45.55-12.25Q45.55-17.05 46.72-19.83 47.89-22.6 50.37-23.78 52.84-24.95 56.74-24.95ZM90.74-24.35L95.24-24.35 86.34-1.05Q86.14-0.55 85.77-0.28 85.39 0 84.84 0L84.84 0 80.99 0Q80.49 0 80.09-0.28 79.69-0.55 79.49-1.05L79.49-1.05 70.59-24.35 75.14-24.35 81.14-7.3Q81.54-6.25 81.89-5.15 82.24-4.05 82.59-3.05L82.59-3.05 83.24-3.05Q83.64-4.1 84.02-5.18 84.39-6.25 84.74-7.3L84.74-7.3 90.74-24.35ZM111.59-24.95L111.59-24.95Q114.29-24.95 116.16-24.23 118.04-23.5 118.99-21.8 119.94-20.1 119.94-17.15L119.94-17.15 119.94 0 116.59 0 115.94-5.3 115.64-5.85 115.64-17.15Q115.64-19.4 114.61-20.38 113.59-21.35 110.69-21.35L110.69-21.35Q108.79-21.35 105.91-21.15 103.04-20.95 100.24-20.7L100.24-20.7 99.84-23.85Q101.54-24.15 103.56-24.4 105.59-24.65 107.69-24.8 109.79-24.95 111.59-24.95ZM105.49-15L117.94-15 117.89-11.8 106.24-11.75Q104.49-11.7 103.79-10.83 103.09-9.95 103.09-8.4L103.09-8.4 103.09-6.85Q103.09-4.95 103.99-4.08 104.89-3.2 106.89-3.2L106.89-3.2Q108.29-3.2 110.06-3.73 111.84-4.25 113.64-5.35 115.44-6.45 116.94-8.15L116.94-8.15 116.94-5Q116.39-4.3 115.36-3.38 114.34-2.45 112.91-1.58 111.49-0.7 109.77-0.13 108.04 0.45 106.04 0.45L106.04 0.45Q103.89 0.45 102.24-0.33 100.59-1.1 99.66-2.63 98.74-4.15 98.74-6.35L98.74-6.35 98.74-9Q98.74-11.85 100.52-13.43 102.29-15 105.49-15L105.49-15ZM129.39-31.55L133.64-31.55 133.64-6.7Q133.64-4.95 134.39-4.2 135.14-3.45 136.94-3.45L136.94-3.45 140.64-3.45 141.14-0.2Q140.34 0 139.29 0.15 138.24 0.3 137.24 0.38 136.24 0.45 135.64 0.45L135.64 0.45Q132.59 0.45 130.99-1.25 129.39-2.95 129.39-6.15L129.39-6.15 129.39-31.55ZM129.79-24.35L141.39-24.35 141.39-21 124.99-21 124.99-24.1 129.79-24.35ZM156.59-24.95L156.59-24.95Q162.09-24.95 164.56-22.95 167.03-20.95 167.03-17L167.03-17Q167.09-13.75 165.69-11.93 164.28-10.1 161.24-10.1L161.24-10.1 147.03-10.1 147.03-13.4 160.13-13.4Q161.78-13.4 162.28-14.53 162.78-15.65 162.78-17L162.78-17Q162.74-19.35 161.38-20.35 160.03-21.35 156.78-21.35L156.78-21.35Q154.13-21.35 152.61-20.58 151.09-19.8 150.46-17.88 149.84-15.95 149.84-12.5L149.84-12.5Q149.84-8.6 150.61-6.55 151.38-4.5 153.09-3.75 154.78-3 157.59-3L157.59-3Q159.53-3 161.86-3.18 164.19-3.35 166.03-3.6L166.03-3.6 166.49-0.75Q165.34-0.3 163.66 0 161.99 0.3 160.21 0.45 158.44 0.6 157.03 0.6L157.03 0.6Q152.84 0.6 150.28-0.68 147.74-1.95 146.56-4.78 145.38-7.6 145.38-12.25L145.38-12.25Q145.38-17.05 146.56-19.83 147.74-22.6 150.21-23.78 152.69-24.95 156.59-24.95ZM186.18-34.95L186.18-34.95Q189.88-34.95 192.46-34.05 195.03-33.15 196.61-31.1 198.18-29.05 198.91-25.65 199.63-22.25 199.63-17.25L199.63-17.25Q199.63-12.25 198.91-8.85 198.18-5.45 196.61-3.4 195.03-1.35 192.46-0.45 189.88 0.45 186.18 0.45L186.18 0.45Q182.63 0.45 179.61 0.33 176.58 0.2 173.88 0L173.88 0 175.78-3.6Q177.88-3.55 180.46-3.48 183.03-3.4 186.18-3.4L186.18-3.4Q189.48-3.4 191.43-4.67 193.38-5.95 194.21-8.97 195.03-12 195.03-17.25L195.03-17.25Q195.03-22.5 194.21-25.53 193.38-28.55 191.43-29.85 189.48-31.15 186.18-31.15L186.18-31.15Q183.08-31.15 180.61-31.1 178.13-31.05 175.78-31L175.78-31 173.88-34.5Q176.58-34.7 179.61-34.83 182.63-34.95 186.18-34.95ZM173.88-34.5L178.28-34.5 178.28 0 173.88 0 173.88-34.5ZM216.63-24.95L216.63-24.95Q222.13-24.95 224.61-22.95 227.08-20.95 227.08-17L227.08-17Q227.13-13.75 225.73-11.93 224.33-10.1 221.28-10.1L221.28-10.1 207.08-10.1 207.08-13.4 220.18-13.4Q221.83-13.4 222.33-14.53 222.83-15.65 222.83-17L222.83-17Q222.78-19.35 221.43-20.35 220.08-21.35 216.83-21.35L216.83-21.35Q214.18-21.35 212.66-20.58 211.13-19.8 210.51-17.88 209.88-15.95 209.88-12.5L209.88-12.5Q209.88-8.6 210.66-6.55 211.43-4.5 213.13-3.75 214.83-3 217.63-3L217.63-3Q219.58-3 221.91-3.18 224.23-3.35 226.08-3.6L226.08-3.6 226.53-0.75Q225.38-0.3 223.71 0 222.03 0.3 220.26 0.45 218.48 0.6 217.08 0.6L217.08 0.6Q212.88 0.6 210.33-0.68 207.78-1.95 206.61-4.78 205.43-7.6 205.43-12.25L205.43-12.25Q205.43-17.05 206.61-19.83 207.78-22.6 210.26-23.78 212.73-24.95 216.63-24.95ZM250.63-24.35L255.13-24.35 246.23-1.05Q246.03-0.55 245.65-0.28 245.28 0 244.73 0L244.73 0 240.88 0Q240.38 0 239.98-0.28 239.58-0.55 239.38-1.05L239.38-1.05 230.48-24.35 235.03-24.35 241.03-7.3Q241.43-6.25 241.78-5.15 242.13-4.05 242.48-3.05L242.48-3.05 243.13-3.05Q243.53-4.1 243.9-5.18 244.28-6.25 244.63-7.3L244.63-7.3 250.63-24.35Z" fill="black"></path></g></svg></g><g><svg xmlns="http://www.w3.org/2000/svg" xmlns:xlink="http://www.w3.org/1999/xlink" version="1.1" x="409.1192" y="0" viewBox="11.017823632605118 11.459999999999999 37.963698158539415 37.07000000000001" style="enable-background:new 0 0 60 60;" xml:space="preserve" height="57.6008" width="58.98946277017525" class="icon-cg-0" data-fill-palette-color="accent" id="SvgjsSvg1975"><path d="M48.85 34.1L35.82 11.92c-0.17-0.29-0.47-0.46-0.81-0.46s-0.64 0.18-0.81 0.46L30 19.08l-4.21-7.15c-0.17-0.29-0.47-0.46-0.81-0.46s-0.64 0.18-0.81 0.46L11.15 34.1c-0.22 0.37-0.16 0.83 0.14 1.13l13.03 13.03c0.18 0.18 0.42 0.27 0.66 0.27s0.48-0.09 0.66-0.27L30 43.91l4.35 4.35c0.18 0.18 0.42 0.27 0.66 0.27s0.48-0.09 0.66-0.27l13.03-13.03C49.01 34.93 49.07 34.46 48.85 34.1zM24.99 46.28L13.13 34.42l11.86-20.18 3.93 6.68L21.17 34.1c-0.22 0.37-0.16 0.83 0.14 1.13l7.36 7.36L24.99 46.28zM30 22.77l6.85 11.65L30 41.27l-6.85-6.85L30 22.77zM35.01 46.28l-3.69-3.69 7.36-7.36c0.3-0.3 0.36-0.77 0.14-1.13l-7.74-13.17 3.93-6.68 11.86 20.18L35.01 46.28z" fill="black"></path></svg></g></svg></g></svg></g></svg></g></svg></g><g></g></svg></g><defs><mask></mask></defs></svg><rect width="395.52" height="48.668760542005366" fill="black" stroke="none" visibility="hidden"></rect></g></mask></svg><rect width="395.52" height="48.668760542005366" fill="black" stroke="none" visibility="hidden"></rect></g></mask><linearGradient x1="0" x2="1" y1="0.578" y2="0.595" id="9901156a-4e71-4f09-8e78-874d4e6bd160"><stop stop-color="#6ee2f5" offset="0"></stop><stop stop-color="#6454f0" offset="1"></stop></linearGradient><rect width="395.52" height="48.668760542005366" fill="url(#9901156a-4e71-4f09-8e78-874d4e6bd160)" mask="url(#e2a4d79a-18c9-4358-a778-aef6d9ad5f63)" data-fill-palette-color="accent"></rect></svg><rect width="395.52" height="48.668760542005366" fill="none" stroke="none" visibility="hidden"></rect></g></svg></g></svg>